<svg id="Layer_1" data-name="Layer 1" xmlns="http://www.w3.org/2000/svg" viewBox="0 0 260.01 259.96"><defs><style>.cls-1{fill:#ff4c4c;}</style></defs><title>favi-got</title><path class="cls-1" d="M55.3,70.6a6.48,6.48,0,0,0-.41-2,5.9,5.9,0,0,0-.56-1.09.75.75,0,0,1-.07-.12L54,67.05l-.17-.22-.23-.24-.25-.27-.21-.19c-.11-.09-.21-.19-.33-.28l-.2-.14-.4-.3L52,65.3a5.3,5.3,0,0,0-.47-.28l-.2-.11-.5-.25h0C45,62,34.13,62.91,22.88,67.6,7.84,73.88-2.22,84.5.41,91.32s17,7.27,32,1C46.05,86.62,55.59,77.37,55.3,70.6Z" transform="translate(0.01 -0.04)"/><path class="cls-1" d="M259.9,11.48l0-.25a9,9,0,0,0-.25-1,3.62,3.62,0,0,0-.13-.35,1.72,1.72,0,0,0-.07-.21h0C257.22,4.16,249,0,239.1,0S221,4.16,218.79,9.7v0c0,.07-.05.15-.08.23s-.07.21-.11.32a8.8,8.8,0,0,0-.26,1l0,.23a7.34,7.34,0,0,0-.1,1.15c0,6.94,9.36,12.57,20.9,12.57S260,19.56,260,12.62A7.11,7.11,0,0,0,259.9,11.48Z" transform="translate(0.01 -0.04)"/><path class="cls-1" d="M96.08,63.13l0,.13c.06.25.13.5.21.74s.08.3.13.45.16.46.25.68.11.29.17.44.18.41.28.61l.21.42c.1.18.21.36.32.54l.25.4.35.46.3.37c.12.13.25.27.38.39a3.49,3.49,0,0,0,.35.32,4.12,4.12,0,0,0,.4.33c.13.1.27.18.4.27a5.52,5.52,0,0,0,.88.46l.45.18a4.84,4.84,0,0,0,.51.14l.47.11c.18,0,.37,0,.56.06s.33,0,.5,0,.41,0,.62,0l.51,0c.22,0,.46-.08.69-.13s.34-.06.51-.11a7.83,7.83,0,0,0,.78-.25l.5-.16c.3-.12.61-.27.92-.41.15-.07.29-.12.44-.2.47-.23.94-.5,1.43-.8.76-.47,1.57-.92,2.41-1.36,12.65-6.64,34-10.47,45.36-13.64.54-.15,1-.31,1.54-.49l.45-.17,1-.39.46-.22a9.23,9.23,0,0,0,.83-.43l.4-.22c.31-.18.6-.37.87-.56l.21-.13c.33-.25.64-.5.93-.76l.22-.21c.21-.2.41-.4.59-.6l.25-.29c.16-.19.31-.39.45-.59l.21-.29.4-.68a2.53,2.53,0,0,0,.12-.23,7.16,7.16,0,0,0,.41-1s0-.09.05-.14c.09-.27.17-.55.24-.83l.06-.31c0-.24.09-.47.12-.71s0-.22,0-.33,0-.5,0-.74,0-.2,0-.3a11.84,11.84,0,0,0-.23-2.11l-.06-.28c-.06-.26-.12-.53-.2-.79s-.06-.23-.1-.34-.17-.51-.26-.76l-.12-.32c-.12-.3-.25-.6-.38-.9l-.07-.16c-.17-.36-.36-.71-.55-1.07L165.4,36c-.16-.28-.32-.55-.5-.83l-.21-.32-.5-.72-.23-.32c-.19-.26-.39-.51-.6-.76l-.19-.24c-.28-.33-.56-.65-.86-1l-.1-.1c-.26-.28-.53-.56-.81-.83l-.3-.28-.68-.62-.34-.29c-.24-.21-.48-.4-.73-.59L159,28.9l-1-.74-.08-.05h0a25.36,25.36,0,0,0-8-3.67c-15.32-3.9-36.7,2.82-47.76,15-5.77,6.35-7.77,16.67-6.1,23.7Z" transform="translate(0.01 -0.04)"/><path class="cls-1" d="M249.89,171.57c0-.33-.08-.66-.15-1s-.09-.4-.14-.59-.13-.59-.21-.87-.14-.42-.21-.63-.17-.54-.28-.81-.17-.42-.26-.63-.22-.52-.34-.78-.21-.42-.32-.63l-.4-.76-.36-.62-.46-.74-.41-.61-.51-.73-.45-.6-.56-.72-.48-.58-.61-.72c-.17-.19-.33-.38-.51-.57s-.43-.48-.65-.71l-.53-.56-.71-.72-.54-.53-.75-.72-.55-.52-.79-.73-.55-.5-.84-.74-.54-.47-.89-.77-.39-.33h0c-7-5.94-14.82-11.58-19.06-17.74C207.23,120.58,248,63,215.7,50c-21.7-10-61.92,44.27-81,44.27S92.4,82.15,77,89.65C61.06,97.39,62.12,120.58,52.91,134c-4.25,6.16-12,11.8-19.07,17.74h0l-.76.66-.41.34-.89.78-.51.45-.8.73-.55.51-.74.69-.58.56-.67.67-.58.59c-.22.22-.42.44-.63.66l-.57.62-.58.65-.54.64-.54.65-.51.66-.49.65-.48.69-.43.64-.44.71c-.13.22-.26.43-.38.65s-.26.49-.39.74-.22.43-.32.64-.23.51-.34.77-.19.43-.27.64-.19.54-.28.81-.14.41-.2.63-.15.57-.22.86-.1.4-.14.6-.1.66-.15,1c0,.17-.05.33-.07.5-.05.51-.07,1-.07,1.53a18.29,18.29,0,0,0,3.12,9.84c6.92,11,23.5,19.69,30.48,29.81,9.21,13.38,8.15,36.57,24.06,44.3A27.64,27.64,0,0,0,89.59,260c10.12-.14,21.69-3.8,32.77-5.81l1.66-.29c1.11-.18,2.2-.34,3.29-.48q3.63-.36,7.3-.36t7.42.36c1.09.14,2.19.3,3.29.48l1.66.29c11.09,2,22.66,5.67,32.78,5.81a27.6,27.6,0,0,0,12.61-2.45c15.92-7.73,14.86-30.92,24.07-44.3,7-10.12,23.56-18.83,30.48-29.81A18.29,18.29,0,0,0,250,173.6c0-.51,0-1-.08-1.53C250,171.9,249.91,171.74,249.89,171.57Z" transform="translate(0.01 -0.04)"/></svg>