<?xml version="1.0" standalone="no"?>
<!DOCTYPE svg PUBLIC "-//W3C//DTD SVG 20010904//EN"
 "http://www.w3.org/TR/2001/REC-SVG-20010904/DTD/svg10.dtd">
<svg version="1.0" xmlns="http://www.w3.org/2000/svg"
 width="700.000000pt" height="700.000000pt" viewBox="0 0 700.000000 700.000000"
 preserveAspectRatio="xMidYMid meet">
<metadata>
Created by potrace 1.11, written by Peter Selinger 2001-2013
</metadata>
<g transform="translate(0.000000,700.000000) scale(0.100000,-0.100000)"
fill="#000000" stroke="none">
<path d="M4416 5819 c-33 -11 -69 -21 -80 -23 -12 -3 -109 -30 -216 -61 -107
-31 -202 -58 -210 -60 -8 -1 -152 -42 -320 -89 -168 -48 -449 -128 -625 -177
-398 -112 -378 -105 -370 -138 11 -46 49 -103 88 -135 35 -28 45 -31 110 -31
69 0 77 3 187 62 131 69 256 121 415 170 120 38 270 80 313 88 103 20 581 148
624 167 98 46 160 118 174 206 8 50 3 51 -90 21z"/>
<path d="M5545 5678 c-170 -51 -276 -101 -450 -216 -81 -53 -247 -175 -325
-239 -168 -137 -502 -409 -547 -444 -185 -147 -399 -275 -509 -303 -46 -12
-192 -13 -264 -2 -14 2 -47 7 -75 11 -45 6 -225 42 -475 96 -522 112 -769 89
-965 -92 -125 -115 -196 -257 -309 -614 -89 -282 -133 -381 -231 -521 -35 -50
-174 -183 -285 -274 -30 -25 -57 -47 -60 -50 -3 -3 -30 -25 -60 -50 -80 -64
-229 -199 -270 -244 -19 -22 -40 -44 -45 -50 -37 -39 -92 -127 -118 -189 -59
-138 -42 -288 47 -436 59 -96 206 -245 391 -396 421 -343 476 -418 621 -860
39 -121 84 -251 98 -290 103 -274 246 -422 471 -491 47 -14 94 -18 215 -18
173 0 256 12 610 90 348 77 421 87 620 87 198 0 215 -2 785 -123 50 -11 108
-22 130 -26 22 -3 42 -7 45 -9 16 -10 151 -19 270 -19 206 1 332 44 456 157
127 117 200 262 314 627 139 442 185 507 600 855 395 331 493 465 493 675 0
106 -8 145 -48 222 -72 140 -211 280 -560 563 -151 122 -272 253 -304 328 -17
39 -20 64 -17 140 3 78 33 244 53 297 3 8 7 22 9 30 2 8 41 137 88 285 162
518 200 690 200 910 0 148 -15 224 -66 323 -55 108 -184 212 -308 249 -61 19
-180 24 -225 11z"/>
</g>
</svg>
